0
SECTION
2
HEADER
9
$INSUNITS
70
4
9
$ACADVER
1
AC1014
9
$HANDSEED
5
FFFF
0
ENDSEC
0
SECTION
2
TABLES
0
TABLE
2
VPORT
5
8
100
AcDbSymbolTable
0
ENDTAB
0
TABLE
2
LTYPE
5
5
100
AcDbSymbolTable
0
LTYPE
5
14
100
AcDbSymbolTableRecord
100
AcDbLinetypeTableRecord
2
BYBLOCK
70
0
0
LTYPE
5
15
100
AcDbSymbolTableRecord
100
AcDbLinetypeTableRecord
2
BYLAYER
70
0
0
ENDTAB
0
TABLE
2
LAYER
5
2
100
AcDbSymbolTable
70
2
0
LAYER
5
50
100
AcDbSymbolTableRecord
100
AcDbLayerTableRecord
2
0
70
0
6
CONTINUOUS
0
ENDTAB
0
TABLE
2
STYLE
5
3
100
AcDbSymbolTable
70
1
0
STYLE
5
11
100
AcDbSymbolTableRecord
100
AcDbTextStyleTableRecord
2
STANDARD
70
0
0
ENDTAB
0
TABLE
2
VIEW
5
6
100
AcDbSymbolTable
70
0
0
ENDTAB
0
TABLE
2
UCS
5
7
100
AcDbSymbolTable
70
0
0
ENDTAB
0
TABLE
2
APPID
5
9
100
AcDbSymbolTable
70
2
0
APPID
5
12
100
AcDbSymbolTableRecord
100
AcDbRegAppTableRecord
2
ACAD
70
0
0
ENDTAB
0
TABLE
2
DIMSTYLE
5
A
100
AcDbSymbolTable
70
1
0
ENDTAB
0
TABLE
2
BLOCK_RECORD
5
1
100
AcDbSymbolTable
70
1
0
BLOCK_RECORD
5
1F
100
AcDbSymbolTableRecord
100
AcDbBlockTableRecord
2
*MODEL_SPACE
0
BLOCK_RECORD
5
1B
100
AcDbSymbolTableRecord
100
AcDbBlockTableRecord
2
*PAPER_SPACE
0
ENDTAB
0
ENDSEC
0
SECTION
2
BLOCKS
0
BLOCK
5
20
100
AcDbEntity
100
AcDbBlockBegin
2
*MODEL_SPACE
0
ENDBLK
5
21
100
AcDbEntity
100
AcDbBlockEnd
0
BLOCK
5
1C
100
AcDbEntity
100
AcDbBlockBegin
2
*PAPER_SPACE
0
ENDBLK
5
1D
100
AcDbEntity
100
AcDbBlockEnd
0
ENDSEC
0
SECTION
2
ENTITIES
0
LINE
5
100
100
AcDbEntity
8
0
100
AcDbLine
10
-114.00000169873238
20
-76.500001139938831
30
0
11
-52.11336903002946
21
-137.27137731513784
31
0
0
LINE
5
101
100
AcDbEntity
8
0
100
AcDbLine
10
-52.11336903002946
20
-137.27137731513784
30
0
11
108.12466151571033
21
-10.904485867686409
31
0
0
LINE
5
102
100
AcDbEntity
8
0
100
AcDbLine
10
108.12466151571033
20
-10.904485867686409
30
0
11
24.646042531274972
21
94.773397840493558
31
0
0
LINE
5
103
100
AcDbEntity
8
0
100
AcDbLine
10
24.646042531274972
20
94.773397840493558
30
0
11
7.0000001043081284
21
85.000001266598701
31
0
0
LINE
5
104
100
AcDbEntity
8
0
100
AcDbLine
10
7.0000001043081284
20
85.000001266598701
30
0
11
-0.94154541804633229
21
91.401063349643977
31
0
0
LINE
5
105
100
AcDbEntity
8
0
100
AcDbLine
10
-0.94154541804633229
20
91.401063349643977
30
0
11
-6.0000000894069672
21
87.000001296401024
31
0
0
LINE
5
106
100
AcDbEntity
8
0
100
AcDbLine
10
-6.0000000894069672
20
87.000001296401024
30
0
11
-4.8646931521322543
21
85.695112019492569
31
0
0
LINE
5
107
100
AcDbEntity
8
0
100
AcDbLine
10
-4.8646931521322543
20
85.695112019492569
30
0
11
-9.6749126707684781
21
81.510024682227964
31
0
0
LINE
5
108
100
AcDbEntity
8
0
100
AcDbLine
10
-9.6749126707684781
20
81.510024682227964
30
0
11
-11.067356723871399
21
83.110459995298953
31
0
0
LINE
5
109
100
AcDbEntity
8
0
100
AcDbLine
10
-11.067356723871399
20
83.110459995298953
30
0
11
-30.742825253492221
21
67.217165746287833
31
0
0
LINE
5
110
100
AcDbEntity
8
0
100
AcDbLine
10
-30.742825253492221
20
67.217165746287833
30
0
11
-29.637396127655883
21
65.848674379026292
31
0
0
LINE
5
111
100
AcDbEntity
8
0
100
AcDbLine
10
-29.637396127655883
20
65.848674379026292
30
0
11
-34.646821247327971
21
61.802200602532679
31
0
0
LINE
5
112
100
AcDbEntity
8
0
100
AcDbLine
10
-34.646821247327971
20
61.802200602532679
30
0
11
-35.752250373164301
21
63.170691969794206
31
0
0
LINE
5
113
100
AcDbEntity
8
0
100
AcDbLine
10
-35.752250373164301
20
63.170691969794206
30
0
11
-55.458154127517702
21
47.252812995825629
31
0
0
LINE
5
114
100
AcDbEntity
8
0
100
AcDbLine
10
-55.458154127517702
20
47.252812995825629
30
0
11
-54.352725001681392
21
45.88432162856413
31
0
0
LINE
5
115
100
AcDbEntity
8
0
100
AcDbLine
10
-54.352725001681392
20
45.88432162856413
30
0
11
-59.110025314529359
21
42.041507233106266
31
0
0
LINE
5
116
100
AcDbEntity
8
0
100
AcDbLine
10
-59.110025314529359
20
42.041507233106266
30
0
11
-60.215454440365647
21
43.409998600367757
31
0
0
LINE
5
117
100
AcDbEntity
8
0
100
AcDbLine
10
-60.215454440365647
20
43.409998600367757
30
0
11
-79.652156061643325
21
27.70957359487738
31
0
0
LINE
5
118
100
AcDbEntity
8
0
100
AcDbLine
10
-79.652156061643325
20
27.70957359487738
30
0
11
-78.546726935807072
21
26.341082227615939
31
0
0
LINE
5
119
100
AcDbEntity
8
0
100
AcDbLine
10
-78.546726935807072
20
26.341082227615939
30
0
11
-83.21091665218708
21
22.573479972856958
31
0
0
LINE
5
120
100
AcDbEntity
8
0
100
AcDbLine
10
-83.21091665218708
20
22.573479972856958
30
0
11
-84.275639266165314
21
23.891577779131971
31
0
0
LINE
5
121
100
AcDbEntity
8
0
100
AcDbLine
10
-84.275639266165314
20
23.891577779131971
30
0
11
-104.42247614522309
21
7.6175253354181187
31
0
0
LINE
5
122
100
AcDbEntity
8
0
100
AcDbLine
10
-104.42247614522309
20
7.6175253354181187
30
0
11
-103.35775353124481
21
6.2994275291430757
31
0
0
LINE
5
123
100
AcDbEntity
8
0
100
AcDbLine
10
-103.35775353124481
20
6.2994275291430757
30
0
11
-108.33700894082551
21
2.277324002291472
31
0
0
LINE
5
124
100
AcDbEntity
8
0
100
AcDbLine
10
-108.33700894082551
20
2.277324002291472
30
0
11
-109.40173155480379
21
3.5954218085665168
31
0
0
LINE
5
125
100
AcDbEntity
8
0
100
AcDbLine
10
-109.40173155480379
20
3.5954218085665168
30
0
11
-129.58702011432945
21
-12.709690829273182
31
0
0
LINE
5
126
100
AcDbEntity
8
0
100
AcDbLine
10
-129.58702011432945
20
-12.709690829273182
30
0
11
-128.52229750035121
21
-14.027788635548175
31
0
0
LINE
5
127
100
AcDbEntity
8
0
100
AcDbLine
10
-128.52229750035121
20
-14.027788635548175
30
0
11
-133.35692055627098
21
-17.933062184440161
31
0
0
LINE
5
128
100
AcDbEntity
8
0
100
AcDbLine
10
-133.35692055627098
20
-17.933062184440161
30
0
11
-134.42164317024918
21
-16.614964378165201
31
0
0
LINE
5
129
100
AcDbEntity
8
0
100
AcDbLine
10
-134.42164317024918
20
-16.614964378165201
30
0
11
-154.07661309968475
21
-32.49170043015301
31
0
0
LINE
5
130
100
AcDbEntity
8
0
100
AcDbLine
10
-154.07661309968475
20
-32.49170043015301
30
0
11
-152.87080645741588
21
-33.984456448575351
31
0
0
LINE
5
131
100
AcDbEntity
8
0
100
AcDbLine
10
-152.87080645741588
20
-33.984456448575351
30
0
11
-157.72829387338103
21
-37.908199189266796
31
0
0
LINE
5
132
100
AcDbEntity
8
0
100
AcDbLine
10
-157.72829387338103
20
-37.908199189266796
30
0
11
-159.31303880185243
21
-35.946327818921077
31
0
0
LINE
5
133
100
AcDbEntity
8
0
100
AcDbLine
10
-110.16859150607928
20
-11.710248490445549
30
0
11
-22.291262893351025
21
59.783132774796869
31
0
0
LINE
5
134
100
AcDbEntity
8
0
100
AcDbLine
10
-22.291262893351025
20
59.783132774796869
30
0
11
-24.034166723863851
21
61.92545322382032
31
0
0
LINE
5
135
100
AcDbEntity
8
0
100
AcDbLine
10
-24.034166723863851
20
61.92545322382032
30
0
11
-39.54068813135973
21
49.30998499572523
31
0
0
LINE
5
136
100
AcDbEntity
8
0
100
AcDbLine
10
-39.54068813135973
20
49.30998499572523
30
0
11
-41.190188004840422
21
51.337496352206387
31
0
0
LINE
5
137
100
AcDbEntity
8
0
100
AcDbLine
10
-41.190188004840422
20
51.337496352206387
30
0
11
-50.995750387856383
21
43.360093977374291
31
0
0
LINE
5
138
100
AcDbEntity
8
0
100
AcDbLine
10
-49.22768893660426
20
41.186850602819888
30
0
11
-111.98870495082636
21
-9.5097461963491803
31
0
0
LINE
5
139
100
AcDbEntity
8
0
100
AcDbLine
10
-111.98870495082636
20
-9.5097461963491803
30
0
11
-110.16859150607928
21
-11.710248490445549
31
0
0
LINE
5
140
100
AcDbEntity
8
0
100
AcDbLine
10
33.440507171062137
20
15.838552203235352
30
0
11
71.237635858559841
21
-32.089646328791332
31
0
0
LINE
5
141
100
AcDbEntity
8
0
100
AcDbLine
10
68.884053268443324
20
-33.945728275535991
30
0
11
31.228789535910177
21
13.802580091221914
31
0
0
LINE
5
142
100
AcDbEntity
8
0
100
AcDbLine
10
31.228789535910177
20
13.802580091221914
30
0
11
33.440507171062137
21
15.838552203235352
31
0
0
LINE
5
143
100
AcDbEntity
8
0
100
AcDbLine
10
-25.364933173182344
20
-4.568714879604121
30
0
11
24.000000357627869
21
-69.000001028180122
31
0
0
LINE
5
144
100
AcDbEntity
8
0
100
AcDbLine
10
20.893355875506909
20
-71.380200268811748
30
0
11
-28.464596626272147
21
-6.95802578406159
31
0
0
LINE
5
145
100
AcDbEntity
8
0
100
AcDbLine
10
-28.464596626272147
20
-6.95802578406159
30
0
11
-25.364933173182344
21
-4.568714879604121
31
0
0
LINE
5
146
100
AcDbEntity
8
0
100
AcDbLine
10
-13.598827750390257
20
-100.02410941360729
30
0
11
-52.000000774860382
21
-54.000000804662704
31
0
0
LINE
5
147
100
AcDbEntity
8
0
100
AcDbLine
10
-52.000000774860382
20
-54.000000804662704
30
0
11
-54.260253333429389
21
-55.885889574787441
31
0
0
LINE
5
148
100
AcDbEntity
8
0
100
AcDbLine
10
-54.260253333429389
20
-55.885889574787441
30
0
11
-15.728972681618867
21
-102.06593320081478
31
0
0
LINE
5
149
100
AcDbEntity
8
0
100
AcDbLine
10
-114.00000169873238
20
-76.500001139938831
30
0
11
-130.29999708756804
21
-89.099998008459806
31
0
0
LINE
5
150
100
AcDbEntity
8
0
100
AcDbLine
10
-50.995750387856383
20
43.360093977374291
30
0
11
-49.328061277941124
21
41.310225005697333
31
0
0
LINE
5
151
100
AcDbEntity
8
0
100
AcDbLine
10
71.237635858559841
20
-32.089646328791332
30
0
11
69.014052656714384
21
-33.843208177592096
31
0
0
LINE
5
152
100
AcDbEntity
8
0
100
AcDbLine
10
24.000000357627869
20
-69.000001028180122
30
0
11
21.000000312924385
21
-71.500001065433025
31
0
0
LINE
5
153
100
AcDbEntity
8
0
100
AcDbLine
10
-15.728972681618867
20
-102.06593320081478
30
0
11
-13.531905538022635
21
-100.23276449689729
31
0
0
ENDSEC
0
SECTION
2
OBJECTS
0
DICTIONARY
5
C
100
AcDbDictionary
3
ACAD_GROUP
350
D
3
ACAD_MLINESTYLE
350
17
0
DICTIONARY
5
D
100
AcDbDictionary
0
DICTIONARY
5
1A
330
C
100
AcDbDictionary
0
DICTIONARY
5
17
100
AcDbDictionary
0
ENDSEC
0
EOF
